<?xml version="1.0" standalone="no"?><!DOCTYPE svg PUBLIC "-//W3C//DTD SVG 1.1//EN" "http://www.w3.org/Graphics/SVG/1.1/DTD/svg11.dtd"><svg t="1645264764096" class="icon" viewBox="0 0 1027 1024" version="1.1" xmlns="http://www.w3.org/2000/svg" p-id="10698" xmlns:xlink="http://www.w3.org/1999/xlink" width="32.09375" height="32"><defs><style type="text/css"></style></defs><path d="M943.656172 0H79.832084C31.216392 0 0 31.216392 0 76.761619v674.990505c0 55.78011 45.033483 100.813593 100.813593 100.813593H946.726637c48.103948 0 79.832084-31.216392 79.832084-76.761619V77.785107v-2.046976C1022.976512 30.704648 991.76012 0 943.656172 0z m1.535232 809.067466H97.743128c-35.310345 0-63.968016-28.657671-63.968016-63.968016V89.043478c0-25.075462 19.958021-45.033483 45.033484-45.033483H951.844078c20.981509 0 37.869065 16.887556 37.869065 37.869065l-1.535232 683.690155c0 24.051974-19.446277 43.498251-42.986507 43.498251zM793.203398 981.013493H228.749625c-11.770115 0-21.493253 9.723138-21.493253 21.493254 0 11.770115 9.723138 21.493253 21.493253 21.493253H793.203398c11.258371 0 20.469765-8.69965 21.493254-19.958021 0.511744-12.793603-9.211394-23.028486-21.493254-23.028486z" p-id="10699" fill="#646566"></path><path d="M738.958521 233.355322v415.024488h49.63918V233.355322h-49.63918z m-120.771614 415.024488V375.108446h-49.639181v272.75962h49.639181z m-170.922539 0V318.304848h-49.639181v332.633683l49.639181-2.558721z m-220.049975-273.271364v272.75962s49.63918-5.117441 49.63918 0V375.108446h-49.63918z" p-id="10700" fill="#646566"></path></svg>